<svg width="1277" height="339" viewBox="0 0 1277 339" fill="none" xmlns="http://www.w3.org/2000/svg">
<path fill-rule="evenodd" clip-rule="evenodd" d="M27.2165 47.1246C10.1817 68.486 0 95.554 0 125C0 194.036 55.9644 250 125 250C194.036 250 250 194.036 250 125C250 55.9644 194.036 0 125 0C114.225 0 103.769 1.3633 93.7936 3.92683C95.9555 8.73378 98.012 13.3773 99.9659 17.8613C108.008 15.9896 116.388 15 125 15C185.751 15 235 64.2487 235 125C235 185.751 185.751 235 125 235C64.2487 235 15 185.751 15 125C15 99.9995 23.3403 76.947 37.3902 58.473C33.9787 54.7258 30.5805 50.9333 27.2165 47.1246Z" fill="black"/>
<path fill-rule="evenodd" clip-rule="evenodd" d="M248.784 266.875C265.818 245.514 276 218.446 276 189C276 119.964 220.036 64 151 64C81.9644 64 26 119.964 26 189C26 258.036 81.9644 314 151 314C161.775 314 172.231 312.637 182.206 310.073C180.044 305.266 177.988 300.623 176.034 296.139C167.992 298.01 159.612 299 151 299C90.2487 299 41 249.751 41 189C41 128.249 90.2487 79 151 79C211.751 79 261 128.249 261 189C261 214 252.66 237.053 238.61 255.527C242.021 259.274 245.42 263.067 248.784 266.875Z" fill="black"/>
<path fill-rule="evenodd" clip-rule="evenodd" d="M27.2165 47.1246C10.1817 68.486 0 95.554 0 125C0 194.036 55.9644 250 125 250C194.036 250 250 194.036 250 125C250 55.9644 194.036 0 125 0C114.225 0 103.769 1.3633 93.7936 3.92683C95.9555 8.73378 98.012 13.3773 99.9659 17.8613C108.008 15.9896 116.388 15 125 15C185.751 15 235 64.2487 235 125C235 185.751 185.751 235 125 235C64.2487 235 15 185.751 15 125C15 99.9995 23.3403 76.947 37.3902 58.473C33.9787 54.7258 30.5805 50.9333 27.2165 47.1246Z" fill="black"/>
<path fill-rule="evenodd" clip-rule="evenodd" d="M248.784 266.875C265.818 245.514 276 218.446 276 189C276 119.964 220.036 64 151 64C81.9644 64 26 119.964 26 189C26 258.036 81.9644 314 151 314C161.775 314 172.231 312.637 182.206 310.073C180.044 305.266 177.988 300.623 176.034 296.139C167.992 298.01 159.612 299 151 299C90.2487 299 41 249.751 41 189C41 128.249 90.2487 79 151 79C211.751 79 261 128.249 261 189C261 214 252.66 237.053 238.61 255.527C242.021 259.274 245.42 263.067 248.784 266.875Z" fill="black"/>
<path d="M362.104 210V90.632H378.272V210H362.104ZM373.112 157.54V142.748H435.376V157.54H373.112ZM373.112 105.424V90.632H438.3V105.424H373.112ZM489.626 211.72C482.975 211.72 476.955 210.229 471.566 207.248C466.291 204.152 462.163 199.909 459.182 194.52C456.201 189.131 454.71 182.881 454.71 175.772V128.3H470.19V175.084C470.19 179.556 470.935 183.455 472.426 186.78C474.031 189.991 476.325 192.456 479.306 194.176C482.287 195.896 485.785 196.756 489.798 196.756C495.875 196.756 500.634 194.864 504.074 191.08C507.514 187.181 509.234 181.849 509.234 175.084V128.3H524.714V175.772C524.714 182.881 523.223 189.131 520.242 194.52C517.261 199.909 513.133 204.152 507.858 207.248C502.698 210.229 496.621 211.72 489.626 211.72ZM545.461 210V87.192H560.941V210H545.461ZM596.146 210V94.072H611.626V210H596.146ZM576.022 142.404V128.3H631.75V142.404H576.022ZM681.719 211.72C673.692 211.72 666.468 209.828 660.047 206.044C653.626 202.26 648.523 197.157 644.739 190.736C640.955 184.2 639.063 176.919 639.063 168.892C639.063 160.98 640.955 153.871 644.739 147.564C648.523 141.143 653.626 136.04 660.047 132.256C666.468 128.472 673.692 126.58 681.719 126.58C689.631 126.58 696.798 128.472 703.219 132.256C709.755 135.925 714.915 140.971 718.699 147.392C722.483 153.813 724.375 160.98 724.375 168.892C724.375 176.919 722.483 184.2 718.699 190.736C714.915 197.157 709.755 202.26 703.219 206.044C696.798 209.828 689.631 211.72 681.719 211.72ZM681.719 196.756C686.879 196.756 691.466 195.552 695.479 193.144C699.492 190.736 702.646 187.468 704.939 183.34C707.232 179.097 708.379 174.281 708.379 168.892C708.379 163.617 707.175 158.916 704.767 154.788C702.474 150.66 699.32 147.449 695.307 145.156C691.408 142.748 686.879 141.544 681.719 141.544C676.559 141.544 671.972 142.748 667.959 145.156C663.946 147.449 660.792 150.66 658.499 154.788C656.206 158.916 655.059 163.617 655.059 168.892C655.059 174.281 656.206 179.097 658.499 183.34C660.792 187.468 663.946 190.736 667.959 193.144C671.972 195.552 676.559 196.756 681.719 196.756ZM799.609 210V162.356C799.609 156.164 797.66 151.061 793.761 147.048C789.862 143.035 784.817 141.028 778.625 141.028C774.497 141.028 770.828 141.945 767.617 143.78C764.406 145.615 761.884 148.137 760.049 151.348C758.214 154.559 757.297 158.228 757.297 162.356L750.933 158.744C750.933 152.552 752.309 147.048 755.061 142.232C757.813 137.416 761.654 133.632 766.585 130.88C771.516 128.013 777.077 126.58 783.269 126.58C789.461 126.58 794.908 128.128 799.609 131.224C804.425 134.32 808.209 138.391 810.961 143.436C813.713 148.367 815.089 153.641 815.089 159.26V210H799.609ZM741.817 210V128.3H757.297V210H741.817ZM885.413 158.056V144.468H917.749C924.743 144.468 930.133 142.691 933.917 139.136C937.701 135.581 939.593 130.765 939.593 124.688C939.593 118.955 937.701 114.196 933.917 110.412C930.247 106.628 924.915 104.736 917.921 104.736H885.413V90.632H918.437C926.005 90.632 932.598 92.1227 938.217 95.104C943.835 97.9707 948.135 101.927 951.117 106.972C954.213 112.017 955.761 117.808 955.761 124.344C955.761 131.109 954.213 137.015 951.117 142.06C948.135 147.105 943.835 151.061 938.217 153.928C932.598 156.68 926.005 158.056 918.437 158.056H885.413ZM874.577 210V90.632H890.745V210H874.577ZM943.377 210L900.033 156.508L915.341 151.176L963.845 210H943.377ZM980.337 210V128.3H995.817V210H980.337ZM988.077 111.96C985.21 111.96 982.859 111.043 981.025 109.208C979.19 107.259 978.273 104.851 978.273 101.984C978.273 99.232 979.19 96.9387 981.025 95.104C982.859 93.1547 985.21 92.18 988.077 92.18C990.943 92.18 993.294 93.1547 995.129 95.104C996.963 96.9387 997.881 99.232 997.881 101.984C997.881 104.851 996.963 107.259 995.129 109.208C993.294 111.043 990.943 111.96 988.077 111.96ZM1076.42 210V162.356C1076.42 156.164 1074.47 151.061 1070.57 147.048C1066.67 143.035 1061.63 141.028 1055.44 141.028C1051.31 141.028 1047.64 141.945 1044.43 143.78C1041.22 145.615 1038.7 148.137 1036.86 151.348C1035.03 154.559 1034.11 158.228 1034.11 162.356L1027.75 158.744C1027.75 152.552 1029.12 147.048 1031.87 142.232C1034.63 137.416 1038.47 133.632 1043.4 130.88C1048.33 128.013 1053.89 126.58 1060.08 126.58C1066.27 126.58 1071.72 128.128 1076.42 131.224C1081.24 134.32 1085.02 138.391 1087.77 143.436C1090.53 148.367 1091.9 153.641 1091.9 159.26V210H1076.42ZM1018.63 210V128.3H1034.11V210H1018.63ZM1146.74 245.948C1138.37 245.948 1130.92 244.4 1124.38 241.304C1117.96 238.208 1112.8 233.851 1108.9 228.232L1118.88 218.084C1122.21 222.327 1126.16 225.537 1130.75 227.716C1135.33 230.009 1140.78 231.156 1147.09 231.156C1155.46 231.156 1162.05 228.92 1166.87 224.448C1171.8 220.091 1174.26 214.185 1174.26 206.732V186.436L1177.02 168.032L1174.26 149.8V128.3H1189.74V206.732C1189.74 214.529 1187.91 221.352 1184.24 227.2C1180.69 233.048 1175.64 237.635 1169.1 240.96C1162.68 244.285 1155.23 245.948 1146.74 245.948ZM1146.74 208.624C1139.29 208.624 1132.58 206.847 1126.62 203.292C1120.77 199.737 1116.13 194.864 1112.69 188.672C1109.25 182.365 1107.53 175.313 1107.53 167.516C1107.53 159.719 1109.25 152.781 1112.69 146.704C1116.13 140.512 1120.77 135.639 1126.62 132.084C1132.58 128.415 1139.29 126.58 1146.74 126.58C1153.17 126.58 1158.84 127.841 1163.77 130.364C1168.7 132.887 1172.6 136.441 1175.47 141.028C1178.45 145.5 1180.05 150.775 1180.28 156.852V178.524C1179.94 184.487 1178.28 189.761 1175.3 194.348C1172.43 198.82 1168.53 202.317 1163.6 204.84C1158.67 207.363 1153.05 208.624 1146.74 208.624ZM1149.84 194.004C1154.89 194.004 1159.3 192.915 1163.08 190.736C1166.98 188.557 1169.96 185.519 1172.03 181.62C1174.09 177.607 1175.12 172.963 1175.12 167.688C1175.12 162.413 1174.03 157.827 1171.86 153.928C1169.79 149.915 1166.87 146.819 1163.08 144.64C1159.3 142.347 1154.83 141.2 1149.67 141.2C1144.51 141.2 1139.98 142.347 1136.08 144.64C1132.18 146.819 1129.09 149.915 1126.79 153.928C1124.61 157.827 1123.52 162.356 1123.52 167.516C1123.52 172.676 1124.61 177.263 1126.79 181.276C1129.09 185.289 1132.18 188.443 1136.08 190.736C1140.09 192.915 1144.68 194.004 1149.84 194.004Z" fill="black"/>
</svg>